<?xml version="1.0" standalone="no"?>
<!DOCTYPE svg PUBLIC "-//W3C//DTD SVG 20010904//EN"
 "http://www.w3.org/TR/2001/REC-SVG-20010904/DTD/svg10.dtd">
<svg version="1.0" xmlns="http://www.w3.org/2000/svg"
 width="60.000000pt" height="44.000000pt" viewBox="0 0 60.000000 44.000000"
 preserveAspectRatio="xMidYMid meet">

<g transform="translate(0.000000,44.000000) scale(0.100000,-0.100000)"
fill="#000000" stroke="none">
<path d="M94 430 c-12 -5 -25 -13 -29 -19 -3 -6 -18 -11 -32 -11 l-26 0 27
-25 c25 -23 26 -27 20 -95 l-7 -70 56 -57 57 -56 65 6 c36 4 74 11 85 17 16 9
24 7 37 -5 8 -9 21 -14 28 -11 7 2 48 -18 92 -45 76 -49 119 -67 129 -56 15
14 -22 45 -122 101 -96 54 -112 67 -135 109 -14 26 -42 64 -61 85 -20 20 -43
54 -51 74 -21 50 -84 78 -133 58z m94 -58 c20 -13 -2 -62 -28 -62 -11 0 -20 4
-20 8 0 5 -11 14 -25 20 -44 20 -29 34 45 40 8 1 21 -2 28 -6z"/>
</g>
</svg>
